<?xml version="1.0" encoding="UTF-8"?>
<svg xmlns="http://www.w3.org/2000/svg" viewBox="-8 -8 528 528" fill="currentColor">
<g>
	<path d="M468.387,309.37H492c11.028,0,20-8.972,20-20V22.07c0-11.028-8.972-20-20-20h-60.589c-5.522,0-10,4.478-10,10s4.478,10,10,10H492v267.3h-21.466c-2.368-25.804-24.122-46.084-50.534-46.084s-48.167,20.28-50.534,46.084h-62.932c-2.368-25.804-24.122-46.084-50.534-46.084s-48.167,20.28-50.534,46.084h-62.932c-2.368-25.804-24.122-46.084-50.534-46.084s-48.167,20.28-50.534,46.084H20V22.07h320.291c5.522,0,10-4.478,10-10s-4.478-10-10-10H20c-11.028,0-20,8.972-20,20v267.3c0,11.028,8.972,20,20,20h23.613c2.982,9.393,8.624,17.61,16.043,23.76c-14.501,7.945-25.969,21.056-31.58,37.066H20c-11.028,0-20,8.972-20,20v99.735c0,11.028,8.972,20,20,20h472c11.028,0,20-8.972,20-20v-99.735c0-11.028-8.972-20-20-20h-8.07c-3.337-9.572-8.792-18.302-16.052-25.57c-4.642-4.638-9.844-8.509-15.444-11.573C459.808,326.911,465.418,318.724,468.387,309.37z M356.076,370.196H348c-3.645,0-7.054,0.996-10,2.706c-2.946-1.71-6.355-2.706-10-2.706h-8.07c-3.337-9.572-8.792-18.302-16.052-25.57c-4.642-4.638-9.844-8.509-15.444-11.573c7.374-6.141,12.984-14.328,15.954-23.682h67.225c2.982,9.393,8.624,17.61,16.043,23.76C373.155,341.075,361.687,354.186,356.076,370.196z M184,370.196c-3.645,0-7.054,0.996-10,2.706c-2.946-1.71-6.355-2.706-10-2.706h-8.07c-3.337-9.572-8.792-18.302-16.052-25.57c-4.642-4.638-9.844-8.509-15.444-11.573c7.374-6.141,12.984-14.328,15.954-23.682h67.225c2.982,9.393,8.624,17.61,16.043,23.76c-14.501,7.945-25.969,21.056-31.58,37.066H184z M255.979,344.8c0.007,0,0.014,0,0.021,0c0.007,0,0.013,0,0.02,0c12.732,0.005,24.708,4.967,33.715,13.967c3.396,3.399,6.228,7.253,8.44,11.429h-84.326C221.976,354.963,238.11,344.808,255.979,344.8z M256,263.286c16.96,0,30.758,13.798,30.758,30.757c0,16.953-13.787,30.747-30.738,30.757c-0.007,0-0.013,0-0.02,0c-0.007,0-0.014,0-0.021,0c-16.951-0.011-30.737-13.804-30.737-30.757C225.242,277.083,239.04,263.286,256,263.286z M61.242,294.042c0-16.959,13.798-30.757,30.758-30.757s30.758,13.798,30.758,30.757c0,16.953-13.787,30.747-30.738,30.757c-0.007,0-0.013,0-0.02,0c-0.007,0-0.014,0-0.021,0C75.029,324.789,61.242,310.996,61.242,294.042z M91.979,344.8c0.007,0,0.014,0,0.021,0c0.007,0,0.013,0,0.02,0c12.732,0.005,24.708,4.967,33.715,13.967c3.396,3.399,6.228,7.253,8.44,11.429H49.849C57.976,354.963,74.11,344.808,91.979,344.8z M20,398.196a8,8,0,0,1,8-8h128a8,8,0,0,1,8,8v91.735H20V398.196z M184,398.196a8,8,0,0,1,8-8h128a8,8,0,0,1,8,8v91.735H184V398.196z M492,489.931H348V398.196a8,8,0,0,1,8-8h128a8,8,0,0,1,8,8V489.931z M453.734,358.767c3.396,3.399,6.228,7.253,8.44,11.429h-84.326c8.127-15.232,24.261-25.388,42.131-25.396c0.007,0,0.014,0,0.021,0c0.007,0,0.013,0,0.02,0C432.751,344.805,444.727,349.767,453.734,358.767z M420,324.799c-0.007,0-0.014,0-0.021,0c-16.951-0.011-30.737-13.804-30.737-30.757c0-16.959,13.798-30.757,30.758-30.757s30.758,13.798,30.758,30.757c0,16.953-13.787,30.747-30.738,30.757C420.013,324.8,420.007,324.799,420,324.799z"/>
	<circle cx="385.77" cy="12.069" r="10"/>
</g>
</svg>
